/vscmnt/brussel_pixiu_data/_data_brussel/112/vsc11236/PredSimResults/SUBJ07mtu3D/weighted-LRposFixed/expIG/worker_01.mot
version=1
nRows=8
nColumns=50
inDegrees=yes
endheader
                time	         pelvis_tilt	         pelvis_list	     pelvis_rotation	           pelvis_tx	           pelvis_ty	           pelvis_tz	       hip_flexion_r	     hip_adduction_r	      hip_rotation_r	        knee_angle_r	       ankle_angle_r	         mtp_angle_r	       hip_flexion_l	     hip_adduction_l	      hip_rotation_l	        knee_angle_l	       ankle_angle_l	         mtp_angle_l	    lumbar_extension	      lumbar_bending	     lumbar_rotation	 ercspn_r/activation	 intobl_r/activation	 extobl_r/activation	    abd_r/activation	    add_r/activation	hamstrings_r/activation	bifemsh_r/activation	glut_max_r/activation	iliopsoas_r/activation	rect_fem_r/activation	  vasti_r/activation	gastroc_r/activation	 soleus_r/activation	tib_ant_r/activation	 ercspn_l/activation	 intobl_l/activation	 extobl_l/activation	    abd_l/activation	    add_l/activation	hamstrings_l/activation	bifemsh_l/activation	glut_max_l/activation	iliopsoas_l/activation	rect_fem_l/activation	  vasti_l/activation	gastroc_l/activation	 soleus_l/activation	tib_ant_l/activation	
          1.00000001	         -7.95861495	          6.56817035	         -2.38777186	          1.27000001	          0.89509285	          0.01507005	         15.75737791	         -3.51271700	          6.69731187	        -33.86928937	          4.34038434	         18.69288744	         44.54035122	          8.41870084	         -2.57683847	        -55.09728125	        -30.39490220	          0.07218717	         -4.31017800	         -0.56004042	          5.46560310	          0.07578396	          0.24507217	          0.17478899	          0.02265752	          0.11342133	          0.01399477	          0.07491534	          0.02491939	          0.60191711	          0.64876337	          0.03305081	          0.09658348	          0.09651952	          0.43018903	          0.12017900	          0.03137213	          0.05503122	          0.11893971	          0.15534650	          0.25900897	          0.15327660	          0.09918433	          0.01712836	          0.01333332	          0.16446160	          0.24969214	          0.17297052	          0.02137731	
          1.02000001	         -7.74764023	          5.97798258	         -3.86253544	          1.29424945	          0.89674803	          0.01526332	         17.69753451	         -2.31516422	          8.00485161	        -38.67443088	          6.02138059	         14.60489813	         42.10606309	          8.61965267	         -0.25741608	        -54.54686926	        -30.69544556	          3.67575318	         -4.25598922	          0.56872560	          4.85907009	          0.05683797	          0.18380412	          0.19075069	          0.01699314	          0.14668177	          0.01049608	          0.05618651	          0.01868954	          0.45143783	          0.70698962	          0.02851977	          0.07243761	          0.07238964	          0.42692547	          0.09013425	          0.02352910	          0.04127341	          0.12783523	          0.16576424	          0.19425673	          0.11495745	          0.15760744	          0.01284627	          0.00999999	          0.22256056	          0.25543486	          0.18494328	          0.01603298	
          1.04000001	         -7.57601556	          5.40371037	         -5.40569312	          1.31781241	          0.89725585	          0.01532753	         19.38460907	         -1.18325762	          8.86050116	        -39.68429630	          7.95212577	         11.27295046	         39.39000745	          8.60853917	          1.55891975	        -54.02024724	        -30.18980152	          9.22729328	         -4.37074894	          1.82706303	          4.19834373	          0.06567168	          0.13785309	          0.14306302	          0.01274485	          0.13457548	          0.00999999	          0.04213988	          0.01401716	          0.34494851	          0.53024222	          0.06045766	          0.05432821	          0.05429223	          0.38558037	          0.06760069	          0.04505197	          0.03095506	          0.09740202	          0.12432318	          0.14569254	          0.08621809	          0.11820558	          0.00999999	          0.00999999	          0.23357000	          0.23676948	          0.21520464	          0.01202474	
          1.06000001	         -7.37906650	          5.03926728	         -6.92435636	          1.34068474	          0.89704866	          0.01527568	         20.59740634	         -0.34875977	          9.27763858	        -37.30508918	          9.48411572	          8.61294534	         36.84509507	          8.55365474	          2.58246267	        -53.66645685	        -29.83121080	         15.20465266	         -4.68294696	          2.93363922	          3.46845785	          0.12364122	          0.10338982	          0.10729726	          0.04274309	          0.14501904	          0.00999999	          0.03160491	          0.01051287	          0.25871138	          0.39768166	          0.04534324	          0.04074615	          0.04071917	          0.34440204	          0.09846352	          0.05115066	          0.02321630	          0.12694382	          0.12371934	          0.10926941	          0.06466357	          0.08865419	          0.00999999	          0.00999999	          0.23067011	          0.17757711	          0.21430782	          0.00999999	
          1.08000001	         -7.13036917	          4.95929261	         -8.39934797	          1.36355496	          0.89602432	          0.01517415	         21.26782732	          0.14239435	          9.55138109	        -32.58109511	         10.48278237	          6.59679634	         34.52870475	          8.60618041	          2.84030963	        -53.58278880	        -29.25573572	         20.22383229	         -5.01042688	          3.78308916	          2.68430170	          0.17429321	          0.07754236	          0.08047295	          0.11399730	          0.15196928	          0.00999999	          0.02370368	          0.00999999	          0.19403353	          0.29826124	          0.03400743	          0.03055962	          0.03053938	          0.31353223	          0.13109139	          0.04833150	          0.01741222	          0.15909453	          0.09278951	          0.08195206	          0.04849767	          0.06649064	          0.00999999	          0.00999999	          0.18327652	          0.13318283	          0.16073087	          0.00999999	
          1.10000001	         -6.80386439	          5.06236382	         -9.80781186	          1.38725623	          0.89380410	          0.01503572	         21.18907786	          0.33564103	          9.97613459	        -26.01759132	         10.89283444	          5.08667701	         32.40217490	          8.74819160	          2.44063202	        -54.02324919	        -27.78874729	         23.50098664	         -5.18431418	          4.49537603	          1.87106750	          0.20578017	          0.05815677	          0.06035471	          0.13121455	          0.15734889	          0.09446305	          0.01777776	          0.00999999	          0.14552515	          0.22369593	          0.02550557	          0.02291971	          0.02290453	          0.28607820	          0.11418259	          0.11765623	          0.01305917	          0.11932090	          0.08317624	          0.06146404	          0.03637326	          0.04986798	          0.21157879	          0.01777776	          0.13745739	          0.09988712	          0.12054815	          0.00999999	
          1.12000001	         -6.38056931	          5.20834687	        -11.08378885	          1.41181307	          0.88970714	          0.01489151	         20.47808438	          0.41200684	         10.52453604	        -19.34688156	         10.98541701	          3.92545775	         30.82347338	          8.97193196	          1.60186125	        -55.52092183	        -25.99239402	         24.91053569	         -5.21130689	          5.17138726	          1.09207950	          0.18959385	          0.04361758	          0.04526603	          0.17195102	          0.22103007	          0.24190825	          0.01333332	          0.00999999	          0.10914386	          0.16777195	          0.01912918	          0.01718978	          0.01717840	          0.37333745	          0.15854461	          0.16236059	          0.00999999	          0.08949068	          0.06238218	          0.04609803	          0.02727994	          0.03740098	          0.50418554	          0.01333332	          0.10309304	          0.07491534	          0.09041111	          0.00999999	
          1.14000001	         -5.87245940	          5.24921506	        -12.13443888	          1.43681506	          0.88347361	          0.01482758	         19.87025097	          0.59540506	         11.01597818	        -18.67226282	          9.73431228	          3.03622090	         30.22170882	          9.19762189	          0.54918748	        -58.52787284	        -24.81178036	         24.44897683	         -5.15138300	          5.86396989	          0.35871509	          0.14219539	          0.03271318	          0.03394952	          0.14848856	          0.20761890	          0.22628419	          0.00999999	          0.02663627	          0.08185790	          0.12582896	          0.17335113	          0.01289234	          0.01288380	          0.28644721	          0.15779351	          0.26375982	          0.00999999	          0.06711801	          0.04678663	          0.05618650	          0.02045996	          0.02805074	          0.63669120	          0.00999999	          0.07731978	          0.05618651	          0.06780833	          0.00999999	
